<?xml version="1.0" standalone="no"?>
<!DOCTYPE svg PUBLIC "-//W3C//DTD SVG 20010904//EN"
 "http://www.w3.org/TR/2001/REC-SVG-20010904/DTD/svg10.dtd">
<svg version="1.0" xmlns="http://www.w3.org/2000/svg"
 width="216.000000pt" height="216.000000pt" viewBox="0 0 216.000000 216.000000"
 preserveAspectRatio="xMidYMid meet">
<metadata>
Created by potrace 1.14, written by Peter Selinger 2001-2017
</metadata>
<g transform="translate(0.000000,216.000000) scale(0.100000,-0.100000)"
fill="#000000" stroke="none">
<path d="M381 2113 c-45 -22 -57 -52 -43 -101 13 -43 8 -68 -32 -152 -14 -30
-26 -69 -26 -87 0 -46 73 -238 100 -263 3 -3 16 -20 29 -38 13 -19 55 -70 92
-115 l69 -82 -32 -11 c-31 -10 -214 -102 -248 -124 -8 -5 -62 -38 -120 -74
-132 -81 -170 -117 -164 -154 6 -33 1 -29 50 -34 42 -5 82 -28 139 -80 70 -63
93 -79 150 -110 59 -32 62 -33 203 -35 133 -2 146 -1 200 22 31 14 75 38 97
53 l40 28 0 -95 c0 -53 3 -109 7 -126 3 -16 9 -48 13 -70 29 -167 100 -388
134 -419 21 -19 69 -23 97 -8 17 9 55 50 84 91 3 4 31 19 62 34 84 41 193 170
220 261 8 24 13 98 12 176 0 115 -3 142 -21 181 l-21 46 75 -23 c40 -12 99
-26 131 -29 31 -4 68 -9 82 -11 31 -6 297 -5 325 0 11 3 25 5 32 5 23 2 42 31
37 58 -3 14 -18 57 -34 94 -15 36 -36 100 -45 140 -29 128 -45 166 -87 214
-73 83 -258 156 -375 147 -18 -2 -33 0 -33 3 0 3 22 44 49 93 80 144 112 221
136 323 20 88 26 192 14 236 -10 35 -40 47 -94 37 -16 -3 -91 -6 -166 -8 -75
-2 -151 -7 -170 -12 -19 -4 -36 -8 -39 -9 -42 -9 -135 -70 -170 -112 -53 -62
-101 -153 -114 -215 -6 -26 -8 -25 -89 55 -171 169 -291 255 -417 297 -72 24
-95 25 -139 3z m790 -727 c45 -20 86 -57 98 -88 5 -14 9 -55 7 -90 -2 -55 -7
-71 -34 -108 -18 -24 -32 -40 -32 -36 0 5 -7 3 -16 -5 -17 -14 -149 -17 -199
-5 l-29 7 41 19 c74 33 92 96 42 149 -27 29 -58 26 -105 -9 -21 -16 -42 -30
-45 -30 -4 0 1 25 9 55 8 30 19 55 24 55 4 0 8 6 8 13 0 17 48 63 80 76 37 15
113 13 151 -3z"/>
</g>
</svg>
